<svg width="1280" height="96" viewBox="0 0 1280 96" fill="none" xmlns="http://www.w3.org/2000/svg">
<rect width="1280" height="96" fill="#09090B"/>
<path d="M32.864 54.52L38.504 44.992H33.08V41.488H43.88V44.992L38.36 54.496H44.12V58H32.864V54.52ZM50.4084 58.192C49.0644 58.192 48.0164 57.76 47.2644 56.896C46.5124 56.032 46.1364 54.856 46.1364 53.368V45.976H51.2244V53.152C51.2244 53.52 51.3204 53.808 51.5124 54.016C51.7204 54.208 51.9844 54.304 52.3044 54.304C52.6244 54.304 52.9524 54.208 53.2884 54.016L53.5524 57.352C53.2004 57.624 52.7364 57.832 52.1604 57.976C51.6004 58.12 51.0164 58.192 50.4084 58.192ZM48.6804 44.176C47.9284 44.176 47.2884 43.944 46.7604 43.48C46.2484 43 45.9924 42.416 45.9924 41.728C45.9924 41.04 46.2644 40.464 46.8084 40C47.3524 39.536 47.9764 39.304 48.6804 39.304C49.4164 39.304 50.0484 39.544 50.5764 40.024C51.1204 40.504 51.3924 41.072 51.3924 41.728C51.3924 42.432 51.1204 43.016 50.5764 43.48C50.0324 43.944 49.4004 44.176 48.6804 44.176ZM54.95 46.144H59.774V48.592C60.702 46.736 62.174 45.808 64.19 45.808C65.726 45.808 66.926 46.36 67.79 47.464C68.67 48.552 69.11 50.064 69.11 52V58H64.07V51.496C64.07 50.808 63.918 50.28 63.614 49.912C63.326 49.544 62.918 49.36 62.39 49.36C62.006 49.36 61.63 49.488 61.262 49.744C60.894 49.984 60.59 50.336 60.35 50.8C60.126 51.264 60.014 51.792 60.014 52.384V58H54.95V46.144ZM78.2186 63.496C77.3386 63.496 76.4986 63.408 75.6986 63.232L76.0826 59.68C76.7066 59.776 77.2826 59.824 77.8106 59.824C78.8026 59.824 79.5546 59.528 80.0666 58.936C80.5786 58.36 80.8826 57.384 80.9786 56.008C80.0346 57.336 78.5946 58 76.6586 58C75.6026 58 74.6266 57.728 73.7306 57.184C72.8506 56.64 72.1466 55.904 71.6186 54.976C71.1066 54.048 70.8506 53.032 70.8506 51.928C70.8506 50.808 71.1066 49.784 71.6186 48.856C72.1306 47.912 72.8266 47.168 73.7066 46.624C74.6026 46.08 75.5786 45.808 76.6346 45.808C77.6106 45.808 78.4586 46.064 79.1786 46.576C79.9146 47.072 80.3946 47.744 80.6186 48.592V45.808H85.6826V54.952C85.6826 57.752 85.0426 59.872 83.7626 61.312C82.4986 62.768 80.6506 63.496 78.2186 63.496ZM78.2186 54.4C78.8586 54.4 79.4106 54.176 79.8746 53.728C80.3386 53.264 80.5866 52.72 80.6186 52.096V51.904C80.5866 51.296 80.3306 50.76 79.8506 50.296C79.3866 49.832 78.8426 49.6 78.2186 49.6C77.5626 49.6 77.0026 49.84 76.5386 50.32C76.0746 50.784 75.8426 51.344 75.8426 52C75.8426 52.656 76.0746 53.224 76.5386 53.704C77.0026 54.168 77.5626 54.4 78.2186 54.4ZM94.3301 58.192C93.0021 58.192 91.8181 57.928 90.7781 57.4C89.7541 56.856 88.9541 56.12 88.3781 55.192C87.8021 54.248 87.5141 53.184 87.5141 52C87.5141 50.784 87.8101 49.704 88.4021 48.76C88.9941 47.816 89.7941 47.088 90.8021 46.576C91.8101 46.064 92.9301 45.808 94.1621 45.808C95.3461 45.808 96.3541 46.072 97.1861 46.6C98.0341 47.112 98.6661 47.816 99.0821 48.712C99.4981 49.592 99.7061 50.584 99.7061 51.688C99.7061 51.976 99.6901 52.184 99.6581 52.312L92.4581 53.248C92.6501 53.808 92.9621 54.216 93.3941 54.472C93.8261 54.712 94.3941 54.832 95.0981 54.832C96.1861 54.832 97.3621 54.552 98.6261 53.992L99.2261 57.208C97.7381 57.864 96.1061 58.192 94.3301 58.192ZM95.9861 50.224C95.7301 49.216 95.1221 48.712 94.1621 48.712C93.5861 48.712 93.1301 48.928 92.7941 49.36C92.4581 49.792 92.2821 50.352 92.2661 51.04L95.9861 50.224ZM101.45 46.144H106.274V48.592C107.202 46.736 108.674 45.808 110.69 45.808C112.226 45.808 113.426 46.36 114.29 47.464C115.17 48.552 115.61 50.064 115.61 52V58H110.57V51.496C110.57 50.808 110.418 50.28 110.114 49.912C109.826 49.544 109.418 49.36 108.89 49.36C108.506 49.36 108.13 49.488 107.762 49.744C107.394 49.984 107.09 50.336 106.85 50.8C106.626 51.264 106.514 51.792 106.514 52.384V58H101.45V46.144Z" fill="#F4F4F5"/>
</svg>
